<svg width="16" height="16" viewBox="0 0 1024 1024" xmlns="http://www.w3.org/2000/svg">
    <path d="M106.666667 832h810.666666c10.88 0 19.946667 8.277333 21.184 18.858667L938.666667 853.333333v42.666667c0 10.88-8.277333 19.946667-18.858667 21.184L917.333333 917.333333H106.666667c-10.88 0-19.946667-8.277333-21.184-18.858666L85.333333 896v-42.666667c0-10.88 8.277333-19.946667 18.858667-21.184L106.666667 832h810.666666z m789.333333-512a42.666667 42.666667 0 0 1 42.666667 42.666667v320a42.666667 42.666667 0 0 1-42.666667 42.666666H128a42.666667 42.666667 0 0 1-42.666667-42.666666V362.666667a42.666667 42.666667 0 0 1 42.666667-42.666667h768z m-42.666667 85.333333H170.666667v234.666667h682.666666V405.333333z m64-277.333333c11.733333 0 21.333333 9.6 21.333334 21.333333v42.666667c0 11.733333-9.6 21.333333-21.333334 21.333333H106.666667c-11.733333 0-21.333333-9.6-21.333334-21.333333V149.333333c0-11.733333 9.6-21.333333 21.333334-21.333333z" fill="#000000"/>
</svg>
